<?xml version="1.0" encoding="UTF-8" ?>
<!DOCTYPE svg PUBLIC "-//W3C//DTD SVG 1.1//EN" "http://www.w3.org/Graphics/SVG/1.1/DTD/svg11.dtd">
<svg width="238pt" height="82pt" viewBox="0 0 238 82" version="1.1" xmlns="http://www.w3.org/2000/svg">
<g id="#fafafaff">
<path fill="#fafafa" opacity="1.00" d=" M 109.42 8.37 C 109.33 6.30 110.36 3.57 112.77 3.51 C 115.01 2.91 117.66 4.70 117.59 7.08 C 117.70 14.50 117.54 21.93 117.65 29.35 C 123.88 20.89 137.43 21.48 144.34 28.72 C 152.92 37.78 151.45 54.91 140.21 61.20 C 133.15 65.29 122.87 64.39 117.78 57.57 C 117.50 59.25 117.82 61.31 116.13 62.34 C 114.62 64.02 112.34 62.86 110.53 62.50 C 109.81 60.77 109.26 58.94 109.36 57.05 C 109.42 40.82 109.32 24.59 109.42 8.37 M 127.62 30.78 C 121.75 31.56 117.29 37.14 117.36 42.97 C 116.82 49.57 122.34 56.15 129.08 56.17 C 134.98 56.29 140.29 51.35 140.96 45.54 C 142.71 37.84 135.64 29.45 127.62 30.78 Z" />
<path fill="#fafafa" opacity="1.00" d=" M 158.54 4.50 C 160.59 2.22 165.32 3.71 165.33 6.91 C 165.46 14.39 165.34 21.87 165.36 29.35 C 168.55 25.75 172.98 22.84 177.98 23.22 C 185.38 22.77 192.72 27.26 195.69 34.04 C 199.08 41.83 198.11 51.85 192.03 58.07 C 185.24 65.34 172.09 65.73 165.61 57.83 C 165.28 59.37 164.91 60.90 164.50 62.41 C 161.80 63.78 157.65 63.40 157.32 59.72 C 156.94 43.47 157.28 27.18 157.15 10.92 C 157.32 8.77 156.77 6.13 158.54 4.50 M 174.84 30.86 C 168.42 32.03 164.28 38.85 165.26 45.13 C 165.74 51.79 172.44 57.37 179.11 55.97 C 185.98 54.79 190.33 47.06 188.67 40.48 C 187.47 34.34 181.12 29.49 174.84 30.86 Z" />
<path fill="#fafafa" opacity="1.00" d=" M 57.19 21.12 C 58.86 19.89 60.73 21.27 62.36 21.82 C 62.71 22.91 63.08 23.99 63.46 25.07 C 62.76 27.26 61.09 29.49 58.50 28.98 C 54.63 28.74 53.74 22.62 57.19 21.12 Z" />
<path fill="#fafafa" opacity="1.00" d=" M 80.87 21.82 C 82.68 20.93 84.99 19.85 86.70 21.57 C 89.81 23.75 87.83 29.34 84.05 29.01 C 81.62 29.16 80.60 26.87 79.56 25.11 C 80.00 24.02 80.44 22.92 80.87 21.82 Z" />
<path fill="#fafafa" opacity="1.00" d=" M 11.22 26.24 C 18.10 22.22 27.20 22.15 34.25 25.76 C 36.51 26.80 35.64 29.59 35.53 31.53 C 33.95 32.40 32.11 33.09 30.33 32.37 C 25.85 30.92 20.81 30.53 16.46 32.59 C 8.68 36.87 8.75 50.08 16.61 54.24 C 21.47 56.75 27.37 55.87 32.18 53.67 C 33.36 54.33 34.81 54.70 35.59 55.88 C 35.84 57.33 35.76 58.81 35.69 60.27 C 30.36 63.60 23.76 64.18 17.68 63.11 C 9.93 61.60 3.49 54.97 2.28 47.16 C 0.99 39.29 4.21 30.44 11.22 26.24 Z" />
<path fill="#fafafa" opacity="1.00" d=" M 42.62 23.72 C 44.79 22.50 48.19 23.63 48.63 26.22 C 49.06 31.08 48.36 35.99 49.00 40.84 C 50.16 46.90 55.35 51.54 61.05 53.41 C 68.86 56.31 77.85 55.87 85.32 52.15 C 89.74 49.89 93.44 45.78 94.27 40.77 C 94.95 35.86 94.26 30.87 94.69 25.94 C 95.91 21.89 102.55 22.67 102.69 26.90 C 102.56 33.82 103.77 41.16 100.72 47.66 C 97.10 55.91 88.61 60.99 80.03 62.66 C 71.68 64.13 62.77 63.57 55.03 59.90 C 47.29 56.30 41.14 48.72 40.66 40.01 C 40.59 35.73 40.60 31.45 40.64 27.17 C 40.59 25.77 41.45 24.43 42.62 23.72 Z" />
<path fill="#fafafa" opacity="1.00" d=" M 200.25 29.72 C 198.59 27.08 201.02 23.37 204.02 23.49 C 206.32 23.22 207.77 25.41 208.61 27.22 C 212.06 35.34 215.70 43.37 219.19 51.47 C 222.80 42.94 225.90 34.20 229.72 25.77 C 230.81 22.98 235.39 22.58 236.76 25.31 C 237.86 26.96 237.08 28.93 236.44 30.59 C 232.01 40.80 227.69 51.06 223.21 61.26 C 220.84 66.82 218.52 72.81 213.65 76.69 C 210.44 79.30 205.67 79.70 201.99 77.92 C 199.19 76.46 199.83 71.70 202.90 70.96 C 204.92 70.57 207.02 71.04 209.06 70.62 C 211.15 68.62 212.38 65.89 213.75 63.38 C 215.03 61.55 213.64 59.50 213.00 57.72 C 208.76 48.39 204.34 39.13 200.25 29.72 Z" />
</g>
</svg>
